<?xml version="1.0" encoding="utf-8"?>
<!-- Generator: Adobe Illustrator 25.2.1, SVG Export Plug-In . SVG Version: 6.00 Build 0)  -->
<svg version="1.1" id="Layer_1" xmlns="http://www.w3.org/2000/svg" xmlns:xlink="http://www.w3.org/1999/xlink" x="0px" y="0px"
	 viewBox="0 0 512 512" style="enable-background:new 0 0 512 512;" xml:space="preserve">
<style type="text/css">
	.st0{fill:#FFFFFF;}
	.st1{fill:#004C97;}
	.st2{fill:#DD0000;}
</style>
<rect class="st0" width="512" height="512"/>
<g>
	<polygon class="st1" points="188.6,0 0,0 0,40 188.6,163.5 	"/>
	<polygon class="st1" points="0,136.6 0,188.6 79.4,188.6 	"/>
	<polygon class="st1" points="0,323.4 0,375.4 79.4,323.4 	"/>
	<polygon class="st1" points="512,40 512,0 323.4,0 323.4,163.5 	"/>
	<polygon class="st1" points="512,375.4 512,323.4 432.6,323.4 	"/>
	<polygon class="st1" points="323.4,348.5 323.4,512 512,512 512,472 	"/>
	<polygon class="st1" points="512,188.6 512,136.6 432.6,188.6 	"/>
	<polygon class="st1" points="0,472 0,512 188.6,512 188.6,348.5 	"/>
</g>
<g>
	<polygon class="st2" points="512,296.4 512,215.6 296.4,215.6 296.4,0 215.6,0 215.6,215.6 0,215.6 0,296.4 215.6,296.4 215.6,512 
		296.4,512 296.4,296.4 	"/>
	<polygon class="st2" points="138.4,323.4 0,413.2 0,445.3 187.9,323.4 	"/>
	<polygon class="st2" points="344.5,323.4 512,432.1 512,400 394,323.4 	"/>
	<polygon class="st2" points="161.7,188.6 0,83.7 0,115.8 112.2,188.6 	"/>
	<polygon class="st2" points="372.9,188.6 512,98.3 512,66.2 323.4,188.6 	"/>
</g>
</svg>
