<?xml version="1.0" encoding="utf-8"?>
<!-- Generator: Adobe Illustrator 25.2.1, SVG Export Plug-In . SVG Version: 6.00 Build 0)  -->
<svg version="1.1" id="Layer_1" xmlns="http://www.w3.org/2000/svg" xmlns:xlink="http://www.w3.org/1999/xlink" x="0px" y="0px"
	 viewBox="0 0 512 512" style="enable-background:new 0 0 512 512;" xml:space="preserve">
<style type="text/css">
	.st0{fill:#FFFFFF;}
	.st1{fill:#DD0000;}
</style>
<rect y="0" class="st0" width="512" height="512"/>
<g>
	<polygon class="st1" points="512,296.4 512,215.6 296.4,215.6 296.4,0 215.6,0 215.6,215.6 0,215.6 0,296.4 215.6,296.4 215.6,512 
		296.4,512 296.4,296.4 	"/>
	<path class="st1" d="M160,89.4c-13.3,1.3-26.4,2.7-39.5,4c1.3-13.1,2.7-26.2,4-39.5c-12.2,1.6-24.6,1.6-36.8,0
		c1.3,13.3,2.7,26.4,4,39.5c-13.1-1.3-26.2-2.7-39.5-4c1.6,12.2,1.6,24.6,0,36.8c13.3-1.3,26.4-2.7,39.5-4
		c-1.3,13.1-2.7,26.2-4,39.5c12.2-1.6,24.6-1.6,36.8,0c-1.3-13.3-2.7-26.4-4-39.5c13.1,1.3,26.2,2.7,39.5,4
		C158.4,114,158.4,101.6,160,89.4z"/>
	<path class="st1" d="M461,89.4c-13.3,1.3-26.4,2.7-39.5,4c1.3-13.1,2.7-26.2,4-39.5c-12.2,1.6-24.6,1.6-36.8,0
		c1.3,13.3,2.7,26.4,4,39.5c-13.1-1.3-26.2-2.7-39.5-4c1.6,12.2,1.6,24.6,0,36.8c13.3-1.3,26.4-2.7,39.5-4
		c-1.3,13.1-2.7,26.2-4,39.5c12.2-1.6,24.6-1.6,36.8,0c-1.3-13.3-2.7-26.4-4-39.5c13.1,1.3,26.2,2.7,39.5,4
		C459.4,114,459.4,101.6,461,89.4z"/>
	<path class="st1" d="M160,385.8c-13.3,1.3-26.4,2.7-39.5,4c1.3-13.1,2.7-26.2,4-39.5c-12.2,1.6-24.6,1.6-36.8,0
		c1.3,13.3,2.7,26.4,4,39.5c-13.1-1.3-26.2-2.7-39.5-4c1.6,12.2,1.6,24.6,0,36.8c13.3-1.3,26.4-2.7,39.5-4
		c-1.3,13.1-2.7,26.2-4,39.5c12.2-1.6,24.6-1.6,36.8,0c-1.3-13.3-2.7-26.4-4-39.5c13.1,1.3,26.2,2.7,39.5,4
		C158.4,410.4,158.4,398,160,385.8z"/>
	<path class="st1" d="M461,385.8c-13.3,1.3-26.4,2.7-39.5,4c1.3-13.1,2.7-26.2,4-39.5c-12.2,1.6-24.6,1.6-36.8,0
		c1.3,13.3,2.7,26.4,4,39.5c-13.1-1.3-26.2-2.7-39.5-4c1.6,12.2,1.6,24.6,0,36.8c13.3-1.3,26.4-2.7,39.5-4
		c-1.3,13.1-2.7,26.2-4,39.5c12.2-1.6,24.6-1.6,36.8,0c-1.3-13.3-2.7-26.4-4-39.5c13.1,1.3,26.2,2.7,39.5,4
		C459.4,410.4,459.4,398,461,385.8z"/>
</g>
</svg>
