<?xml version="1.0" encoding="UTF-8"?>
<!DOCTYPE svg PUBLIC "-//W3C//DTD SVG 1.1//EN" "http://www.w3.org/Graphics/SVG/1.1/DTD/svg11.dtd">
<svg xmlns="http://www.w3.org/2000/svg" version="1.1" width="2000px" height="2000px" style="shape-rendering:geometricPrecision; text-rendering:geometricPrecision; image-rendering:optimizeQuality; fill-rule:evenodd; clip-rule:evenodd" xmlns:xlink="http://www.w3.org/1999/xlink">
<g><path style="opacity:0.994" fill="#373530" d="M 969.5,34.5 C 1213.06,30.0676 1428.73,104.234 1616.5,257C 1808.51,420.121 1922.01,627.288 1957,878.5C 1986.58,1144.64 1920.58,1383.64 1759,1595.5C 1606.17,1786.06 1409,1904.23 1167.5,1950C 919.35,1990.5 689.016,1944.17 476.5,1811C 259.103,1666.78 119.603,1467.28 58,1212.5C 8.031,978.955 38.031,756.288 148,544.5C 252.833,352.337 404.666,210.503 603.5,119C 720.117,67.1789 842.117,39.0122 969.5,34.5 Z"/></g>
<g><path style="opacity:1" fill="#6f748d" d="M 960.5,113.5 C 1202.68,107.189 1414.02,183.689 1594.5,343C 1774.65,510.846 1871.15,718.346 1884,965.5C 1889.85,1205.34 1813.85,1414.68 1656,1593.5C 1488.28,1773.92 1280.78,1870.76 1033.5,1884C 792.77,1890.11 582.77,1813.78 403.5,1655C 227.52,1491.18 131.353,1288.68 115,1047.5C 104.86,800.976 181.193,585.976 344,402.5C 510.55,224.491 716.05,128.157 960.5,113.5 Z"/></g>
<g><path style="opacity:1" fill="#373530" d="M 959.5,126.5 C 1200.18,119.76 1409.85,195.926 1588.5,355C 1771.87,527.628 1866.2,740.462 1871.5,993.5C 1869.8,1228.55 1789.3,1431.55 1630,1602.5C 1446.91,1787.8 1224.41,1877.3 962.5,1871C 730.621,1858.28 533.455,1769.78 371,1605.5C 223.89,1450.21 142.89,1265.21 128,1050.5C 116.956,809.94 189.956,599.273 347,418.5C 511.424,239.217 715.59,141.883 959.5,126.5 Z"/></g>
<g><path style="opacity:1" fill="#bebfc1" d="M 1163.5,722.5 C 1050.83,722.5 938.167,722.5 825.5,722.5C 825.5,723.5 825.5,724.5 825.5,725.5C 824.566,724.432 824.232,723.099 824.5,721.5C 937.668,721.167 1050.67,721.5 1163.5,722.5 Z"/></g>
<g><path style="opacity:1" fill="#d3d5d8" d="M 1163.5,722.5 C 1159.74,750.8 1159.58,779.134 1163,807.5C 1164.26,814.681 1166.1,821.681 1168.5,828.5C 1165.1,828.82 1161.77,828.487 1158.5,827.5C 1155.31,820.755 1152.81,813.755 1151,806.5C 1149.1,789.676 1144.44,773.676 1137,758.5C 1130.29,749.72 1121.79,743.22 1111.5,739C 1097.37,733.374 1082.71,730.041 1067.5,729C 1052.17,728.5 1036.84,728.333 1021.5,728.5C 1020.17,728.5 1018.83,728.5 1017.5,728.5C 1017.17,871.668 1017.5,1014.67 1018.5,1157.5C 1021.06,1170.22 1028.89,1176.55 1042,1176.5C 1048.92,1175.99 1055.75,1174.99 1062.5,1173.5C 1064.44,1178.06 1065.11,1183.06 1064.5,1188.5C 1017.5,1188.5 970.5,1188.5 923.5,1188.5C 923.179,1183.31 923.513,1178.31 924.5,1173.5C 930.429,1174.92 936.429,1175.92 942.5,1176.5C 958.721,1177.76 967.888,1170.43 970,1154.5C 970.667,1012.83 970.667,871.167 970,729.5C 947.835,727.856 925.668,728.356 903.5,731C 885.008,733.709 868.842,741.209 855,753.5C 848.78,762.277 844.447,771.944 842,782.5C 839.95,791.084 838.283,799.751 837,808.5C 835.324,815.511 832.824,822.178 829.5,828.5C 825.988,829.055 822.988,828.388 820.5,826.5C 827.934,801.69 830.434,776.357 828,750.5C 826.032,742.285 825.199,733.951 825.5,725.5C 825.5,724.5 825.5,723.5 825.5,722.5C 938.167,722.5 1050.83,722.5 1163.5,722.5 Z"/></g>
<g><path style="opacity:1" fill="#44423f" d="M 1021.5,728.5 C 1020.79,729.404 1019.79,729.737 1018.5,729.5C 1018.5,872.167 1018.5,1014.83 1018.5,1157.5C 1017.5,1014.67 1017.17,871.668 1017.5,728.5C 1018.83,728.5 1020.17,728.5 1021.5,728.5 Z"/></g>
<g><path style="opacity:1" fill="#71706e" d="M 820.5,826.5 C 822.988,828.388 825.988,829.055 829.5,828.5C 826.375,829.479 823.042,829.813 819.5,829.5C 819.263,828.209 819.596,827.209 820.5,826.5 Z"/></g>
<g><path style="opacity:1" fill="#8e8e8d" d="M 924.5,1173.5 C 923.513,1178.31 923.179,1183.31 923.5,1188.5C 922.185,1183.32 922.185,1177.99 923.5,1172.5C 924.107,1172.62 924.44,1172.96 924.5,1173.5 Z"/></g>
<g><path style="opacity:1" fill="#737271" d="M 1062.5,1173.5 C 1063.21,1172.6 1064.21,1172.26 1065.5,1172.5C 1065.82,1178.03 1065.49,1183.36 1064.5,1188.5C 1065.11,1183.06 1064.44,1178.06 1062.5,1173.5 Z"/></g>
</svg>
