<?xml version="1.0" encoding="UTF-8"?>
<!DOCTYPE svg PUBLIC "-//W3C//DTD SVG 1.1//EN" "http://www.w3.org/Graphics/SVG/1.1/DTD/svg11.dtd">
<svg xmlns="http://www.w3.org/2000/svg" version="1.1" width="64px" height="64px" style="shape-rendering:geometricPrecision; text-rendering:geometricPrecision; image-rendering:optimizeQuality; fill-rule:evenodd; clip-rule:evenodd" xmlns:xlink="http://www.w3.org/1999/xlink">
<g><path style="opacity:1" fill="#4387f2" d="M 24.5,-0.5 C 29.1667,-0.5 33.8333,-0.5 38.5,-0.5C 45.4676,1.80086 50.1342,6.46753 52.5,13.5C 49.5,17.1667 46.1667,20.5 42.5,23.5C 40.3229,11.5773 33.9895,8.57728 23.5,14.5C 20.8333,11.5 18.1667,8.5 15.5,5.5C 18.0177,2.74361 21.0177,0.743612 24.5,-0.5 Z"/></g>
<g><path style="opacity:0.955" fill="#ef3a01" d="M 15.5,5.5 C 18.1667,8.5 20.8333,11.5 23.5,14.5C 22.4861,16.5739 21.4861,18.5739 20.5,20.5C 16.8333,23.8333 13.1667,27.1667 9.5,30.5C 6.75086,20.892 8.75086,12.5587 15.5,5.5 Z"/></g>
<g><path style="opacity:1" fill="#07a76b" d="M 52.5,13.5 C 55.1536,20.4107 54.9869,27.4107 52,34.5C 47.0652,42.7008 41.3985,50.3675 35,57.5C 34.187,59.4357 33.687,61.4357 33.5,63.5C 32.8333,63.5 32.1667,63.5 31.5,63.5C 31.5,54.1667 31.5,44.8333 31.5,35.5C 32.1667,34.5 32.8333,33.5 33.5,32.5C 38.1995,31.1339 41.1995,28.1339 42.5,23.5C 46.1667,20.5 49.5,17.1667 52.5,13.5 Z"/></g>
<g><path style="opacity:0.976" fill="#fed92c" d="M 20.5,20.5 C 21.0384,28.7077 25.3718,32.7077 33.5,32.5C 32.8333,33.5 32.1667,34.5 31.5,35.5C 27.5,39.1667 23.5,42.8333 19.5,46.5C 14.9828,41.967 11.6495,36.6336 9.5,30.5C 13.1667,27.1667 16.8333,23.8333 20.5,20.5 Z"/></g>
<g><path style="opacity:0.975" fill="#5bc369" d="M 31.5,35.5 C 31.5,44.8333 31.5,54.1667 31.5,63.5C 30.8333,63.5 30.1667,63.5 29.5,63.5C 27.8645,56.8577 24.5311,51.191 19.5,46.5C 23.5,42.8333 27.5,39.1667 31.5,35.5 Z"/></g>
</svg>
